<?xml version="1.0" encoding="UTF-8" standalone="no"?>
<!-- Generator: Adobe Illustrator 18.1.0, SVG Export Plug-In . SVG Version: 6.00 Build 0)  -->

<svg
   xmlns:dc="http://purl.org/dc/elements/1.1/"
   xmlns:cc="http://creativecommons.org/ns#"
   xmlns:rdf="http://www.w3.org/1999/02/22-rdf-syntax-ns#"
   xmlns:svg="http://www.w3.org/2000/svg"
   xmlns="http://www.w3.org/2000/svg"
   xmlns:sodipodi="http://sodipodi.sourceforge.net/DTD/sodipodi-0.dtd"
   xmlns:inkscape="http://www.inkscape.org/namespaces/inkscape"
   version="1.1"
   id="Ebene_1"
   x="0px"
   y="0px"
   viewBox="0 0 798.41239 139.21874"
   enable-background="new 0 0 641.9 95.7"
   xml:space="preserve"
   inkscape:version="0.91 r13725"
   sodipodi:docname="elide-text.svg"
   width="798.41241"
   height="139.21873"><metadata
     id="metadata4153"><rdf:RDF><cc:Work
         rdf:about=""><dc:format>image/svg+xml</dc:format><dc:type
           rdf:resource="http://purl.org/dc/dcmitype/StillImage" /><dc:title></dc:title></cc:Work></rdf:RDF></metadata><defs
     id="defs4151"><filter
       style="color-interpolation-filters:sRGB"
       inkscape:label="Drop Shadow"
       id="filter8424"><feFlood
         flood-opacity="0.498039"
         flood-color="rgb(255,255,255)"
         result="flood"
         id="feFlood8426" /><feComposite
         in="flood"
         in2="SourceGraphic"
         operator="in"
         result="composite1"
         id="feComposite8428" /><feGaussianBlur
         in="composite1"
         stdDeviation="5.5"
         result="blur"
         id="feGaussianBlur8430" /><feOffset
         dx="8"
         dy="6"
         result="offset"
         id="feOffset8432" /><feComposite
         in="SourceGraphic"
         in2="offset"
         operator="over"
         result="composite2"
         id="feComposite8434" /></filter></defs><sodipodi:namedview
     pagecolor="#ffffff"
     bordercolor="#666666"
     borderopacity="1"
     objecttolerance="10"
     gridtolerance="10"
     guidetolerance="10"
     inkscape:pageopacity="0"
     inkscape:pageshadow="2"
     inkscape:window-width="1920"
     inkscape:window-height="1027"
     id="namedview4149"
     showgrid="false"
     fit-margin-top="0"
     fit-margin-left="0"
     fit-margin-right="0"
     fit-margin-bottom="0"
     inkscape:zoom="1.0873967"
     inkscape:cx="506.45723"
     inkscape:cy="48.592356"
     inkscape:window-x="-8"
     inkscape:window-y="22"
     inkscape:window-maximized="1"
     inkscape:current-layer="text4155" /><g
     style="font-style:normal;font-weight:normal;font-size:40px;line-height:125%;font-family:sans-serif;letter-spacing:0px;word-spacing:0px;fill:#e05915;fill-opacity:1;stroke:none;stroke-width:1px;stroke-linecap:butt;stroke-linejoin:miter;stroke-opacity:1"
     id="text4155"
     transform="translate(318.51579,236.72146)"><path
       style="font-style:normal;font-variant:normal;font-weight:bold;font-stretch:normal;font-size:137.5px;font-family:Roboto;-inkscape-font-specification:'Roboto Bold';letter-spacing:35px;fill:#e05915;fill-opacity:1;filter:url(#filter8424)"
       d="M 36.966797,0 C 31.094118,0 26.367188,4.7214378 26.367188,10.585938 l 0,94.843752 c 0,5.86457 4.72693,10.58593 10.599609,10.58593 l 63.175783,0 c 5.87268,0 10.59961,-4.72136 10.59961,-10.58593 l 0,-94.843752 C 110.74219,4.7214378 106.01526,0 100.14258,0 L 36.966797,0 Z m 4.027344,8.2539062 a 6.3602987,6.351447 0 0 1 6.359375,6.3515628 6.3602987,6.351447 0 0 1 -6.359375,6.351562 6.3602987,6.351447 0 0 1 -6.361329,-6.351562 6.3602987,6.351447 0 0 1 6.361329,-6.3515628 z m 137.646479,0.8613282 0,97.7539056 65.52735,0 0,-16.18164 -45.38672,0 0,-26.183594 38.67187,0 0,-15.777344 -38.67187,0 0,-23.296874 45.25195,0 0,-16.3144536 -65.39258,0 z m 112.34376,0 0,97.7539056 62.9082,0 0,-16.18164 -42.76758,0 0,-81.5722656 -20.14062,0 z m 110.66601,0 0,97.7539056 20.14063,0 0,-97.7539056 -20.14063,0 z m 73.73828,0 0,97.7539056 30.2793,0 c 8.54899,-0.0448 16.22592,-2.01416 23.0293,-5.9082 6.80338,-3.894049 12.06233,-9.377282 15.77734,-16.449221 3.75977,-7.07194 5.63867,-15.150229 5.63867,-24.236328 l 0,-4.5 c 0,-9.0861 -1.9025,-17.186035 -5.70703,-24.302735 -3.80452,-7.161453 -9.10677,-12.668291 -15.91016,-16.517578 -6.75862,-3.89404 -14.43554,-5.8398436 -23.02929,-5.8398436 l -30.07813,0 z m 124.42774,0 0,97.7539056 65.52734,0 0,-16.18164 -45.38477,0 0,-26.183594 38.67188,0 0,-15.777344 -38.67188,0 0,-23.296874 45.25196,0 0,-16.3144536 -65.39453,0 z M 12.65625,10.546875 c -1.16859,0 -2.109375,0.940795 -2.109375,2.109375 l 0,3.164062 -8.4375,0 C 0.94077514,15.820313 0,16.761098 0,17.929688 l 0,6.328124 c 0,1.16858 0.94077514,2.109375 2.109375,2.109376 l 8.4375,0 0,3.164062 c 0,1.16859 0.940785,2.109375 2.109375,2.109375 l 6.328125,0 c 1.16859,0 2.109375,-0.940785 2.109375,-2.109375 l 0,-5.273438 0,-6.328124 0,-5.273438 c 0,-1.16858 -0.940785,-2.109375 -2.109375,-2.109375 l -6.328125,0 z m 105.46875,0 c -1.16859,0 -2.10937,0.940795 -2.10938,2.109375 l 0,5.273438 0,6.328124 0,5.273438 c 0,1.16859 0.94079,2.109375 2.10938,2.109375 l 6.32812,0 c 1.16859,0 2.10938,-0.940785 2.10938,-2.109375 l 0,-3.164062 8.4375,0 c 1.16859,0 2.10938,-0.940796 2.10938,-2.109376 l 0,-6.328124 c 0,-1.16859 -0.94079,-2.109375 -2.10938,-2.109376 l -8.4375,0 0,-3.164062 c 0,-1.16858 -0.94079,-2.109375 -2.10938,-2.109375 l -6.32812,0 z m 377.4043,14.882813 9.9375,0 c 7.92236,0 13.9427,2.573403 18.06054,7.720703 4.11784,5.102539 6.17578,12.622074 6.17578,22.558593 l 0,5.169922 c -0.0895,9.578453 -2.21435,16.940598 -6.37695,22.087891 -4.1626,5.1473 -10.18295,7.720703 -18.06055,7.720703 l -9.73632,0 0,-65.257812 z M 12.65625,47.460938 c -1.16859,0 -2.109375,0.940775 -2.109375,2.109374 l 0,3.164063 -8.4375,0 C 0.94077514,52.734375 0,53.67516 0,54.84375 l 0,6.328125 c 0,1.16859 0.94077514,2.109375 2.109375,2.109375 l 8.4375,0 0,3.164062 c 0,1.16859 0.940785,2.109376 2.109375,2.109376 l 6.328125,0 c 1.16859,0 2.109375,-0.940786 2.109375,-2.109376 l 0,-5.273437 0,-6.328125 0,-5.273438 c 0,-1.168599 -0.940785,-2.109375 -2.109375,-2.109374 l -6.328125,0 z m 105.46875,0 c -1.16859,0 -2.10937,0.940775 -2.10938,2.109374 l 0,5.273438 0,6.328125 0,5.273437 c 0,1.16859 0.94079,2.109376 2.10938,2.109376 l 6.32812,0 c 1.16859,0 2.10938,-0.940786 2.10938,-2.109376 l 0,-3.164062 8.4375,0 c 1.16859,0 2.10938,-0.940785 2.10938,-2.109375 l 0,-6.328125 c 0,-1.16859 -0.94079,-2.109375 -2.10938,-2.109375 l -8.4375,0 0,-3.164063 c 0,-1.168599 -0.94079,-2.109375 -2.10938,-2.109374 l -6.32812,0 z M 12.65625,84.375 c -1.16859,0 -2.109375,0.940785 -2.109375,2.109375 l 0,3.164063 -8.4375,0 C 0.94077514,89.648438 0,90.589233 0,91.757812 l 0,6.328126 c 0,1.168589 0.94077514,2.109372 2.109375,2.109372 l 8.4375,0 0,3.16407 c 0,1.16857 0.940785,2.10937 2.109375,2.10937 l 6.328125,0 c 1.16859,0 2.109375,-0.9408 2.109375,-2.10937 l 0,-5.273442 0,-6.328126 0,-5.273437 c 0,-1.16859 -0.940785,-2.109375 -2.109375,-2.109375 l -6.328125,0 z m 105.46875,0 c -1.16859,0 -2.10937,0.940785 -2.10938,2.109375 l 0,5.273437 0,6.328126 0,5.273442 c 0,1.16857 0.94079,2.10937 2.10938,2.10937 l 6.32812,0 c 1.16859,0 2.10938,-0.9408 2.10938,-2.10937 l 0,-3.16407 8.4375,0 c 1.16859,0 2.10938,-0.940783 2.10938,-2.109372 l 0,-6.328126 c 0,-1.168579 -0.94079,-2.109374 -2.10938,-2.109374 l -8.4375,0 0,-3.164063 c 0,-1.16859 -0.94079,-2.109375 -2.10938,-2.109375 l -6.32812,0 z"
       transform="translate(-251.98144,-225.1199)"
       id="path4769"
       inkscape:connector-curvature="0" /></g></svg>