<?xml version="1.0" encoding="UTF-8" standalone="no"?>
<!-- Created with Inkscape (http://www.inkscape.org/) -->

<svg
   xmlns:dc="http://purl.org/dc/elements/1.1/"
   xmlns:cc="http://creativecommons.org/ns#"
   xmlns:rdf="http://www.w3.org/1999/02/22-rdf-syntax-ns#"
   xmlns:svg="http://www.w3.org/2000/svg"
   xmlns="http://www.w3.org/2000/svg"
   xmlns:sodipodi="http://sodipodi.sourceforge.net/DTD/sodipodi-0.dtd"
   xmlns:inkscape="http://www.inkscape.org/namespaces/inkscape"
   width="325"
   height="325"
   viewBox="0 0 325.00001 324.99998"
   id="svg2"
   version="1.1"
   inkscape:version="0.91 r13725"
   sodipodi:docname="elide.svg">
  <defs
     id="defs4" />
  <sodipodi:namedview
     id="base"
     pagecolor="#ffffff"
     bordercolor="#666666"
     borderopacity="1.0"
     inkscape:pageopacity="0.0"
     inkscape:pageshadow="2"
     inkscape:zoom="0.98994949"
     inkscape:cx="169.65783"
     inkscape:cy="121.28749"
     inkscape:document-units="px"
     inkscape:current-layer="layer1"
     showgrid="false"
     fit-margin-top="25"
     fit-margin-left="0"
     fit-margin-right="0"
     fit-margin-bottom="25"
     units="px"
     inkscape:window-width="1920"
     inkscape:window-height="1027"
     inkscape:window-x="-8"
     inkscape:window-y="22"
     inkscape:window-maximized="1" />
  <metadata
     id="metadata7">
    <rdf:RDF>
      <cc:Work
         rdf:about="">
        <dc:format>image/svg+xml</dc:format>
        <dc:type
           rdf:resource="http://purl.org/dc/dcmitype/StillImage" />
        <dc:title></dc:title>
      </cc:Work>
    </rdf:RDF>
  </metadata>
  <g
     inkscape:label="Capa 1"
     inkscape:groupmode="layer"
     id="layer1"
     transform="translate(0,-727.36299)">
    <path
       style="fill:#e05915;fill-opacity:1;stroke:none;stroke-linejoin:miter;stroke-opacity:1"
       d="m 280,952.36257 c -2.77,0 -5,2.22999 -5,4.99998 l 0,12.49993 0,14.99993 0,12.49994 c 0,2.76995 2.23,4.99995 5,4.99995 l 15,0 c 2.77,0 5,-2.23 5,-4.99995 l 0,-7.49997 20,0 c 2.77,0 5,-2.22998 5,-4.99997 l 0,-14.99993 c 0,-2.76998 -2.23,-4.99997 -5,-4.99997 l -20,0 0,-7.49996 c 0,-2.76999 -2.23,-4.99998 -5,-4.99998 l -15,0 z"
       id="rect4235"
       inkscape:connector-curvature="0" />
    <path
       style="fill:#e05915;fill-opacity:1;fill-rule:evenodd;stroke:none;stroke-width:1.01114953px;stroke-linecap:butt;stroke-linejoin:miter;stroke-opacity:1"
       d="M 87.627108,752.36297 C 73.70669,752.36297 62.5,763.55406 62.5,777.4551 l 0,224.8157 c 0,13.9012 11.20669,25.0922 25.127108,25.0922 l 149.745782,0 c 13.92042,0 25.12711,-11.191 25.12711,-25.0922 l 0,-224.8157 c 0,-13.90104 -11.20669,-25.09213 -25.12711,-25.09213 l -149.745782,0 z m 9.542412,19.56598 a 15.076265,15.055283 0 0 1 15.07626,15.05529 15.076265,15.055283 0 0 1 -15.07626,15.05528 15.076265,15.055283 0 0 1 -15.076265,-15.05528 15.076265,15.055283 0 0 1 15.076265,-15.05529 z"
       id="rect3347"
       inkscape:connector-curvature="0" />
    <path
       inkscape:connector-curvature="0"
       style="fill:#e05915;fill-opacity:1;stroke:none;stroke-linejoin:miter;stroke-opacity:1"
       d="m 45,914.86276 c 2.77,0 5,-2.22999 5,-4.99998 l 0,-12.49994 0,-14.99992 0,-12.49994 c 0,-2.76999 -2.23,-4.99998 -5,-4.99998 l -15,0 c -2.77,0 -5,2.22999 -5,4.99998 l 0,7.49996 -20,0 c -2.77,0 -5,2.22999 -5,4.99998 l 0,14.99992 c 0,2.76999 2.23,4.99998 5,4.99998 l 20,0 0,7.49996 c 0,2.76999 2.23,4.99998 5,4.99998 l 15,0 z"
       id="rect4235-8" />
    <path
       inkscape:connector-curvature="0"
       style="fill:#e05915;fill-opacity:1;stroke:none;stroke-linejoin:miter;stroke-opacity:1"
       d="m 45,1002.3623 c 2.77,0 5,-2.23 5,-4.99995 l 0,-12.49994 0,-14.99993 0,-12.49993 c 0,-2.76999 -2.23,-4.99998 -5,-4.99998 l -15,0 c -2.77,0 -5,2.22999 -5,4.99998 l 0,7.49996 -20,0 c -2.77,0 -5,2.22999 -5,4.99997 l 0,14.99993 c 0,2.76999 2.23,4.99997 5,4.99997 l 20,0 0,7.49997 c 0,2.76995 2.23,4.99995 5,4.99995 l 15,0 z"
       id="rect4235-1" />
    <path
       inkscape:connector-curvature="0"
       style="fill:#e05915;fill-opacity:1;stroke:none;stroke-linejoin:miter;stroke-opacity:1"
       d="m 45,827.36319 c 2.77,0 5,-2.22999 5,-4.99998 l 0,-12.49993 0,-14.99993 0,-12.49994 c 0,-2.76998 -2.23,-4.99997 -5,-4.99997 l -15,0 c -2.77,0 -5,2.22999 -5,4.99997 l 0,7.49997 -20,0 c -2.77,0 -5,2.22998 -5,4.99997 l 0,14.99993 c 0,2.76998 2.23,4.99997 5,4.99997 l 20,0 0,7.49996 c 0,2.76999 2.23,4.99998 5,4.99998 l 15,0 z"
       id="rect4235-2" />
    <path
       inkscape:connector-curvature="0"
       style="fill:#e05915;fill-opacity:1;stroke:none;stroke-linejoin:miter;stroke-opacity:1"
       d="m 280,777.36354 c -2.77,0 -5,2.22999 -5,4.99997 l 0,12.49994 0,14.99983 0,12.49993 c 0,2.76999 2.23,4.99998 5,4.99998 l 15,0 c 2.77,0 5,-2.22999 5,-4.99998 l 0,-7.49996 20,0 c 2.77,0 5,-2.22999 5,-4.99997 l 0,-14.99983 c 0,-2.76999 -2.23,-4.99997 -5,-4.99997 l -20,0 0,-7.49997 c 0,-2.76998 -2.23,-4.99997 -5,-4.99997 l -15,0 z"
       id="rect4235-5" />
    <path
       inkscape:connector-curvature="0"
       style="fill:#e05915;fill-opacity:1;stroke:none;stroke-linejoin:miter;stroke-opacity:1"
       d="m 280,864.863 c -2.77,0 -5,2.22999 -5,4.99998 l 0,12.49994 0,14.99992 0,12.49994 c 0,2.76999 2.23,4.99998 5,4.99998 l 15,0 c 2.77,0 5,-2.22999 5,-4.99998 l 0,-7.49996 20,0 c 2.77,0 5,-2.22999 5,-4.99998 l 0,-14.99992 c 0,-2.76999 -2.23,-4.99998 -5,-4.99998 l -20,0 0,-7.49996 c 0,-2.76999 -2.23,-4.99998 -5,-4.99998 l -15,0 z"
       id="rect4235-9" />
    <rect
       style="fill:#cdd422;fill-opacity:1;stroke:none;stroke-linejoin:miter;stroke-opacity:1"
       id="rect4314"
       width="100"
       height="50"
       x="-150"
       y="1002.363" />
    <rect
       style="fill:#e05915;fill-opacity:1;stroke:none;stroke-linejoin:miter;stroke-opacity:1"
       id="rect4314-9"
       width="100"
       height="50"
       x="-150"
       y="952.36298" />
    <rect
       style="fill:#431c5d;fill-opacity:1;stroke:none;stroke-linejoin:miter;stroke-opacity:1"
       id="rect4314-1"
       width="100"
       height="50"
       x="-150"
       y="902.36298" />
    <rect
       style="fill:#e6e9f0;fill-opacity:1;stroke:none;stroke-linejoin:miter;stroke-opacity:1"
       id="rect4314-9-8"
       width="100"
       height="50"
       x="-150"
       y="852.36298" />
    <rect
       style="fill:#c2dde6;fill-opacity:1;stroke:none;stroke-linejoin:miter;stroke-opacity:1"
       id="rect4314-1-3"
       width="100"
       height="50"
       x="-150"
       y="802.36298" />
    <rect
       style="fill:#bccbde;fill-opacity:1;stroke:none;stroke-linejoin:miter;stroke-opacity:1"
       id="rect4314-9-8-9"
       width="100"
       height="50"
       x="-150"
       y="752.36298" />
  </g>
</svg>
