<?xml version="1.0" standalone="no"?>
<!DOCTYPE svg PUBLIC "-//W3C//DTD SVG 20010904//EN"
 "http://www.w3.org/TR/2001/REC-SVG-20010904/DTD/svg10.dtd">
<svg version="1.0" xmlns="http://www.w3.org/2000/svg"
 width="16.000000pt" height="16.000000pt" viewBox="0 0 16.000000 16.000000"
 preserveAspectRatio="xMidYMid meet">
<metadata>
Created by potrace 1.11, written by Peter Selinger 2001-2013
</metadata>
<g transform="translate(0.000000,16.000000) scale(0.003125,-0.003125)"
fill="#000000" stroke="none">
<path d="M1294 4715 c-160 -36 -281 -168 -302 -327 -5 -35 -8 -875 -7 -1868
l2 -1805 23 -60 c45 -118 126 -197 246 -241 46 -17 127 -18 1289 -19 940 -1
1251 1 1287 11 150 38 258 150 293 299 8 37 11 537 10 1875 -2 1715 -3 1828
-19 1874 -44 122 -129 208 -252 252 -46 17 -126 18 -1285 19 -876 1 -1250 -2
-1285 -10z m344 -324 c83 -43 127 -116 126 -212 -1 -54 -6 -76 -28 -113 -106
-181 -374 -151 -431 49 -29 104 11 210 101 266 69 42 161 47 232 10z"/>
<path d="M482 4333 c-4 -1 -19 -4 -34 -7 -38 -9 -55 -48 -54 -123 1 -35 -1
-64 -4 -64 -3 -1 -80 -2 -172 -3 -163 -2 -168 -2 -193 -26 l-26 -25 3 -152 c3
-130 6 -155 21 -170 15 -16 42 -19 194 -23 l176 -5 2 -73 c1 -60 4 -76 23 -94
21 -21 31 -22 172 -22 214 -1 194 -38 197 380 3 362 0 387 -50 399 -20 5 -238
12 -255 8z"/>
<path d="M4411 4329 c-81 -11 -80 -5 -78 -396 2 -426 -17 -387 197 -388 142 0
151 1 172 23 19 19 23 33 23 97 l0 75 90 0 c50 0 129 2 177 3 122 3 122 3 126
169 6 227 11 222 -217 224 -86 1 -161 2 -166 3 -6 0 -10 28 -9 64 1 71 -16
114 -49 122 -33 8 -217 11 -266 4z"/>
<path d="M435 2943 c-29 -16 -39 -42 -41 -113 -1 -30 -2 -59 -3 -65 -1 -6 -62
-10 -164 -9 -161 1 -190 -4 -214 -35 -13 -16 -18 -265 -7 -307 11 -43 47 -51
222 -50 101 1 162 -3 163 -9 1 -5 2 -37 3 -70 1 -74 24 -114 64 -116 15 -1 85
-2 155 -2 187 0 171 -33 175 366 1 177 0 337 -3 355 -10 56 -38 65 -191 66
-90 1 -143 -3 -159 -11z"/>
<path d="M4376 2945 c-42 -21 -45 -43 -45 -393 l0 -334 24 -24 c13 -13 34 -25
47 -25 95 -5 243 -3 268 4 38 10 57 48 55 112 -2 83 -7 80 167 79 84 -1 165 3
179 8 41 14 49 46 49 198 0 191 4 187 -228 186 -89 -1 -162 1 -163 4 0 3 -2
34 -3 70 -2 73 -15 105 -48 116 -35 11 -279 10 -302 -1z"/>
<path d="M430 1558 c-32 -19 -32 -20 -34 -113 l-2 -60 -177 -5 c-228 -6 -216
4 -217 -197 0 -136 1 -143 24 -170 l24 -28 171 0 c108 0 171 -4 172 -10 1 -5
2 -35 3 -65 2 -69 12 -97 38 -111 26 -14 291 -13 319 1 11 6 24 22 29 35 5 14
9 174 9 356 -2 416 15 382 -188 384 -121 1 -146 -1 -171 -17z"/>
<path d="M4393 1572 c-13 -2 -31 -14 -42 -28 -18 -23 -19 -44 -20 -354 0 -182
4 -341 9 -354 5 -14 18 -30 30 -36 22 -12 275 -16 310 -5 31 10 47 53 46 123
-1 34 1 63 4 63 3 1 77 2 165 3 88 1 169 5 181 9 36 12 44 50 44 197 0 139 0
139 -27 165 -27 25 -30 25 -192 24 -90 0 -166 2 -169 5 -3 4 -6 38 -7 76 -2
108 -10 113 -177 114 -73 1 -143 0 -155 -2z"/>
</g>
</svg>
